<svg xmlns="http://www.w3.org/2000/svg" viewBox="0 0 137.71 139.01"><defs><style>.cls-1{fill:#4a2c75;}</style></defs><g id="Camada_2" data-name="Camada 2"><g id="Camada_1-2" data-name="Camada 1"><path class="cls-1" d="M121.83,30c4.13-4.11,8.39-8.35,12.51-12.62a11.39,11.39,0,0,0,3.37-8.18,9.41,9.41,0,0,0-3-6.68A9.19,9.19,0,0,0,128.38,0a11.75,11.75,0,0,0-8.17,3.76l-3.77,3.76c-4.8,4.78-9.77,9.72-14.6,14.64-1.07,1.09-1.37,1.21-2.74.2C86.11,12.8,72.54,9,58.76,11.12,42.2,13.64,29.23,21.6,20,34.82c-6.37,8.31-10,17.28-10.68,26.78a43.3,43.3,0,0,0,.72,13c1.6,8.62,5.44,16.92,11.62,25.16l.07.1A10.82,10.82,0,0,1,23,101.68a10,10,0,0,1-1.64,1.84q-2.73,2.73-5.47,5.45c-4.12,4.11-8.39,8.35-12.51,12.62A11.39,11.39,0,0,0,0,129.77a9.45,9.45,0,0,0,3,6.68A9.19,9.19,0,0,0,9.33,139a11.73,11.73,0,0,0,8.17-3.76l3.77-3.76c4.81-4.78,9.77-9.72,14.6-14.64,1.07-1.09,1.37-1.21,2.74-.2C51.6,126.21,65.17,130,79,127.89c16.56-2.52,29.54-10.48,38.75-23.7,6.38-8.31,10-17.28,10.68-26.77a43.35,43.35,0,0,0-.72-13c-1.6-8.62-5.44-16.92-11.62-25.16l-.07-.1a11.51,11.51,0,0,1-1.25-1.83,10.43,10.43,0,0,1,1.64-1.84Q119.09,32.76,121.83,30ZM49.63,104.8a2.27,2.27,0,0,1-.77-.66s0-.31.79-1C55.06,97.75,60.52,92.28,65.8,87l4.74-4.75h0l6.67-6.67q7.34-7.32,14.66-14.66a26.58,26.58,0,0,1,5.81-4.45c2.24-1.26,4.25-1.64,6-1.14s3.23,1.91,4.45,4.17l.06.13a30.3,30.3,0,0,1,1,12.51C106.9,91,89.58,107.41,69.81,109.47a65.64,65.64,0,0,1-9.42.11A37.52,37.52,0,0,1,49.63,104.8ZM88.08,34.21c.66.42.77.66.77.66s0,.31-.79,1.05C82.65,41.26,77.19,46.73,71.91,52l-4.74,4.75h0l-6.67,6.67q-7.34,7.32-14.66,14.66A26.77,26.77,0,0,1,40,82.54c-2.24,1.26-4.26,1.64-6,1.14s-3.23-1.91-4.45-4.17l-.06-.13a30.26,30.26,0,0,1-1.05-12.5C30.82,48,48.13,31.6,67.9,29.54a65.65,65.65,0,0,1,9.42-.11A37.52,37.52,0,0,1,88.08,34.21Z"/></g></g></svg>