<?xml version="1.0" encoding="utf-8"?>
<!-- Generator: Adobe Illustrator 25.0.0, SVG Export Plug-In . SVG Version: 6.00 Build 0)  -->
<svg version="1.1" id="Camada_1" xmlns="http://www.w3.org/2000/svg" xmlns:xlink="http://www.w3.org/1999/xlink" x="0px" y="0px"
	 viewBox="0 0 488.5 139" style="enable-background:new 0 0 488.5 139;" xml:space="preserve">
<style type="text/css">
	.st0{fill:#7A5EA1;}
	.st1{fill:#4B2C75;}
	.st2{fill:#4A2C75;}
</style>
<g id="Camada_2_1_">
	<g id="Camada_1-2">
		<path class="st0" d="M164.1,110.3V30.7h31.4c9.3,0,16.6,2.4,22.1,7.3s8.2,11.3,8.2,19.3v0.2c0,8.6-3,15.2-9.1,20
			c-6,4.8-13.6,7.2-22.8,7.2h-15.8v25.6L164.1,110.3z M178.1,72.1h16.3c5.2,0,9.4-1.3,12.5-4c3-2.5,4.8-6.3,4.7-10.2v-0.2
			c0-4.6-1.5-8.2-4.6-10.6c-3-2.4-7.2-3.6-12.6-3.6h-16.3L178.1,72.1z"/>
		<path class="st0" d="M238.3,110.3v-83h13.9v32.2c5-7,11.3-10.5,18.8-10.5c6.8,0,12,2.1,15.8,6.2s5.6,9.7,5.6,16.8v38.3h-13.8V76.2
			c0-4.7-1.1-8.3-3.4-10.9c-2.2-2.6-5.4-3.8-9.5-3.8c-3.7-0.2-7.3,1.3-9.8,4c-2.5,2.7-3.7,6.3-3.7,10.9v33.9L238.3,110.3z"/>
		<path class="st0" d="M309.2,41.1V28H324v13.1H309.2z M309.6,110.3v-60h13.9v60.1L309.6,110.3z"/>
		<path class="st1" d="M337.4,110.3V30.7H404v22.8h-40v10.1h37.2v20.7H364v26L337.4,110.3z"/>
		<path class="st1" d="M409.4,43.8V27.3h26.7v16.5H409.4z M409.8,110.3V48.2h25.8v62.1H409.8z"/>
		<path class="st1" d="M471.8,111.7c-15.6,0-23.4-7.4-23.4-22.2V68.1h-7.3V48.2h7.3V32.7h25.8v15.6h14.3v19.9h-14.3v15.7
			c0,4.3,2.1,6.4,6.3,6.4c2.7-0.1,5.4-0.8,7.9-1.9v19.9C483.8,110.5,478.3,111.7,471.8,111.7z"/>
		<g id="Camada_2_2_">
			<g id="Camada_1-2_1_">
				<path class="st2" d="M121.8,30.5c4.1-4.1,8.4-8.4,12.5-12.6c2.2-2.2,3.4-5.1,3.4-8.2c-0.1-2.5-1.1-4.9-3-6.7
					c-1.7-1.6-4-2.5-6.3-2.5c-3.1,0.1-6.1,1.5-8.2,3.8L116.4,8c-4.8,4.8-9.8,9.7-14.6,14.6c-1.1,1.1-1.4,1.2-2.7,0.2
					c-13-9.6-26.6-13.4-40.3-11.2C42.2,14.1,29.2,22.1,20,35.3c-6.4,8.3-10,17.3-10.7,26.8c-0.4,4.3-0.2,8.7,0.7,13
					c1.6,8.6,5.4,16.9,11.6,25.2l0.1,0.1c0.5,0.6,0.9,1.2,1.3,1.8c-0.5,0.7-1,1.3-1.6,1.8c-1.8,1.8-3.6,3.6-5.5,5.4
					c-4.1,4.1-8.4,8.3-12.5,12.6c-2.2,2.2-3.4,5.1-3.4,8.2c0.1,2.5,1.1,4.9,3,6.7c1.7,1.6,4,2.5,6.3,2.6c3.1-0.1,6.1-1.5,8.2-3.8
					l3.8-3.8c4.8-4.8,9.8-9.7,14.6-14.6c1.1-1.1,1.4-1.2,2.7-0.2c13,9.6,26.6,13.4,40.4,11.2c16.6-2.5,29.5-10.5,38.8-23.7
					c6.4-8.3,10-17.3,10.7-26.8c0.4-4.3,0.2-8.7-0.7-13c-1.6-8.6-5.4-16.9-11.6-25.2l-0.1-0.1c-0.5-0.6-0.9-1.2-1.2-1.8
					c0.5-0.7,1-1.3,1.6-1.8C118.2,34.2,120,32.3,121.8,30.5z M49.6,105.3c-0.3-0.2-0.6-0.4-0.8-0.7c0,0,0-0.3,0.8-1
					c5.4-5.4,10.9-10.9,16.2-16.1l4.7-4.8l0,0l6.7-6.7c4.9-4.9,9.8-9.8,14.7-14.7c1.7-1.7,3.7-3.2,5.8-4.5c2.2-1.3,4.2-1.6,6-1.1
					s3.2,1.9,4.4,4.2l0.1,0.1c1.2,4.1,1.5,8.3,1,12.5c-2.3,18.9-19.6,35.3-39.4,37.3c-3.1,0.3-6.3,0.3-9.4,0.1
					C56.6,109.1,52.9,107.5,49.6,105.3z M88.1,34.7c0.7,0.4,0.8,0.7,0.8,0.7s0,0.3-0.8,1c-5.4,5.3-10.9,10.8-16.1,16.1l-4.7,4.8l0,0
					l-6.7,6.7c-4.9,4.9-9.8,9.8-14.7,14.7c-1.7,1.7-3.7,3.2-5.8,4.5c-2.2,1.3-4.3,1.6-6,1.1s-3.2-1.9-4.5-4.2l-0.1-0.1
					c-1.2-4-1.6-8.3-1-12.5C30.8,48.5,48.1,32.1,67.9,30c3.1-0.3,6.3-0.3,9.4-0.1C81.1,30.9,84.8,32.6,88.1,34.7z"/>
			</g>
		</g>
	</g>
</g>
</svg>
